<svg xmlns="http://www.w3.org/2000/svg" xmlns:xlink="http://www.w3.org/1999/xlink" width="96" zoomAndPan="magnify" viewBox="0 0 72 72" height="96" preserveAspectRatio="xMidYMid meet" version="1.0"><defs><g/></defs><g fill="#666c79" fill-opacity="1"><g transform="translate(14.777114, 49.012744)"><g><path d="M 54.6875 -9.25 C 53.394531 -9.394531 52.09375 -9.46875 50.78125 -9.46875 C 50.207031 -9.488281 49.625 -9.503906 49.03125 -9.515625 C 43.632812 -9.742188 38.21875 -9.800781 32.78125 -9.6875 C 32.519531 -9.6875 32.300781 -9.6875 32.125 -9.6875 C 31.820312 -9.707031 31.601562 -9.707031 31.46875 -9.6875 C 31.332031 -9.664062 31.222656 -9.59375 31.140625 -9.46875 C 31.066406 -9.34375 30.972656 -9.140625 30.859375 -8.859375 C 30.785156 -8.691406 30.703125 -8.488281 30.609375 -8.25 C 29.703125 -6.28125 28.867188 -4.273438 28.109375 -2.234375 C 27.617188 -0.921875 27.238281 0.425781 26.96875 1.8125 C 26.863281 2.238281 26.828125 2.65625 26.859375 3.0625 C 26.890625 3.476562 27.078125 3.847656 27.421875 4.171875 C 27.460938 4.203125 27.476562 4.242188 27.46875 4.296875 C 27.457031 4.347656 27.425781 4.394531 27.375 4.4375 C 27.320312 4.476562 27.269531 4.503906 27.21875 4.515625 C 26.414062 4.640625 25.9375 4.351562 25.78125 3.65625 C 25.6875 3.269531 25.664062 2.867188 25.71875 2.453125 C 25.71875 2.421875 25.71875 2.398438 25.71875 2.390625 C 25.78125 1.679688 25.90625 0.976562 26.09375 0.28125 C 26.289062 -0.414062 26.507812 -1.117188 26.75 -1.828125 C 27.507812 -3.929688 28.347656 -6.003906 29.265625 -8.046875 C 29.316406 -8.140625 29.351562 -8.226562 29.375 -8.3125 C 29.425781 -8.414062 29.476562 -8.519531 29.53125 -8.625 C 29.601562 -8.78125 29.671875 -8.929688 29.734375 -9.078125 C 29.796875 -9.222656 29.816406 -9.378906 29.796875 -9.546875 C 29.722656 -9.597656 29.648438 -9.628906 29.578125 -9.640625 C 29.503906 -9.660156 29.429688 -9.664062 29.359375 -9.65625 C 29.347656 -9.65625 29.332031 -9.65625 29.3125 -9.65625 C 28.675781 -9.65625 28.035156 -9.644531 27.390625 -9.625 C 27.210938 -9.625 27.03125 -9.625 26.84375 -9.625 C 26.601562 -9.613281 26.398438 -9.539062 26.234375 -9.40625 C 26.078125 -9.269531 25.925781 -9.101562 25.78125 -8.90625 C 25.582031 -8.65625 25.382812 -8.410156 25.1875 -8.171875 C 24.363281 -7.109375 23.53125 -6.054688 22.6875 -5.015625 C 21.4375 -3.503906 20.128906 -2.046875 18.765625 -0.640625 C 17.410156 0.753906 15.972656 2.066406 14.453125 3.296875 C 12.535156 4.878906 10.5 6.269531 8.34375 7.46875 C 5.050781 9.226562 1.601562 10.0625 -2 9.96875 C -5.40625 9.894531 -8.472656 8.976562 -11.203125 7.21875 C -11.972656 6.726562 -12.65625 6.132812 -13.25 5.4375 C -13.644531 4.945312 -13.957031 4.414062 -14.1875 3.84375 C -14.414062 3.28125 -14.53125 2.664062 -14.53125 2 C -14.5 1.195312 -14.316406 0.453125 -13.984375 -0.234375 C -13.648438 -0.921875 -13.1875 -1.546875 -12.59375 -2.109375 C -11.78125 -2.890625 -10.882812 -3.554688 -9.90625 -4.109375 C -8.957031 -4.660156 -7.976562 -5.144531 -6.96875 -5.5625 C -5.957031 -5.976562 -4.941406 -6.347656 -3.921875 -6.671875 C -2.253906 -7.203125 -0.578125 -7.648438 1.109375 -8.015625 C 2.804688 -8.378906 4.507812 -8.6875 6.21875 -8.9375 C 10.257812 -9.5 14.3125 -9.875 18.375 -10.0625 C 20.457031 -10.1875 22.53125 -10.25 24.59375 -10.25 C 25.15625 -10.238281 25.59375 -10.476562 25.90625 -10.96875 C 26.457031 -11.738281 27.007812 -12.507812 27.5625 -13.28125 C 28.414062 -14.46875 29.257812 -15.675781 30.09375 -16.90625 C 33.945312 -22.664062 37.640625 -28.519531 41.171875 -34.46875 C 41.472656 -34.96875 41.765625 -35.476562 42.046875 -36 C 42.179688 -36.269531 42.320312 -36.535156 42.46875 -36.796875 C 42.644531 -37.140625 42.925781 -37.332031 43.3125 -37.375 C 43.519531 -37.375 43.671875 -37.316406 43.765625 -37.203125 C 43.867188 -37.085938 43.882812 -36.929688 43.8125 -36.734375 C 43.726562 -36.566406 43.640625 -36.410156 43.546875 -36.265625 C 42.972656 -35.242188 42.46875 -34.207031 42.03125 -33.15625 C 41.851562 -32.78125 41.6875 -32.414062 41.53125 -32.0625 C 39.96875 -28.675781 38.398438 -25.289062 36.828125 -21.90625 C 35.628906 -19.300781 34.421875 -16.6875 33.203125 -14.0625 C 32.847656 -13.289062 32.5 -12.519531 32.15625 -11.75 C 32.082031 -11.582031 32.007812 -11.425781 31.9375 -11.28125 C 31.925781 -11.25 31.910156 -11.210938 31.890625 -11.171875 C 31.847656 -11.054688 31.8125 -10.945312 31.78125 -10.84375 C 31.75 -10.738281 31.757812 -10.640625 31.8125 -10.546875 C 31.90625 -10.472656 32.019531 -10.429688 32.15625 -10.421875 C 32.289062 -10.410156 32.414062 -10.40625 32.53125 -10.40625 C 32.625 -10.425781 32.707031 -10.4375 32.78125 -10.4375 C 33.34375 -10.414062 33.910156 -10.414062 34.484375 -10.4375 C 35.242188 -10.4375 36.015625 -10.425781 36.796875 -10.40625 C 41.003906 -10.332031 45.210938 -10.242188 49.421875 -10.140625 C 50.804688 -10.109375 52.179688 -10.050781 53.546875 -9.96875 C 53.671875 -9.945312 53.800781 -9.9375 53.9375 -9.9375 C 54.007812 -9.9375 54.085938 -9.9375 54.171875 -9.9375 C 54.347656 -9.9375 54.519531 -9.921875 54.6875 -9.890625 C 54.851562 -9.867188 55.007812 -9.8125 55.15625 -9.71875 C 55.1875 -9.695312 55.207031 -9.664062 55.21875 -9.625 C 55.226562 -9.582031 55.226562 -9.546875 55.21875 -9.515625 C 55.21875 -9.472656 55.195312 -9.429688 55.15625 -9.390625 C 55.125 -9.359375 55.09375 -9.332031 55.0625 -9.3125 C 54.9375 -9.269531 54.8125 -9.25 54.6875 -9.25 Z M 24.515625 -9.140625 C 24.566406 -9.234375 24.570312 -9.316406 24.53125 -9.390625 C 24.5 -9.460938 24.4375 -9.5 24.34375 -9.5 C 24.207031 -9.507812 24.066406 -9.507812 23.921875 -9.5 C 23.847656 -9.5 23.773438 -9.5 23.703125 -9.5 C 18.609375 -9.4375 13.515625 -9.085938 8.421875 -8.453125 C 6.472656 -8.210938 4.53125 -7.898438 2.59375 -7.515625 C 0.664062 -7.128906 -1.242188 -6.644531 -3.140625 -6.0625 C -4.148438 -5.757812 -5.144531 -5.40625 -6.125 -5 C -7.113281 -4.601562 -8.078125 -4.128906 -9.015625 -3.578125 C -9.992188 -3.023438 -10.882812 -2.351562 -11.6875 -1.5625 C -12.625 -0.601562 -13.148438 0.414062 -13.265625 1.5 C -13.378906 2.59375 -13.085938 3.644531 -12.390625 4.65625 C -11.867188 5.363281 -11.25 5.972656 -10.53125 6.484375 C -7.894531 8.347656 -4.765625 9.300781 -1.140625 9.34375 C -0.203125 9.34375 0.867188 9.21875 2.078125 8.96875 C 3.273438 8.71875 4.429688 8.351562 5.546875 7.875 C 6.671875 7.394531 7.757812 6.828125 8.8125 6.171875 C 11.40625 4.578125 13.8125 2.71875 16.03125 0.59375 C 17.5625 -0.84375 19.003906 -2.351562 20.359375 -3.9375 C 21.710938 -5.53125 23.023438 -7.148438 24.296875 -8.796875 C 24.367188 -8.921875 24.441406 -9.035156 24.515625 -9.140625 Z M 30.71875 -11.234375 C 31.695312 -13.453125 32.703125 -15.671875 33.734375 -17.890625 C 33.785156 -18.003906 33.941406 -18.347656 34.203125 -18.921875 C 34.472656 -19.503906 34.78125 -20.175781 35.125 -20.9375 C 35.476562 -21.707031 35.796875 -22.429688 36.078125 -23.109375 C 36.367188 -23.796875 36.570312 -24.304688 36.6875 -24.640625 C 36.8125 -24.984375 36.78125 -25.019531 36.59375 -24.75 C 36.539062 -24.6875 36.503906 -24.625 36.484375 -24.5625 C 36.316406 -24.320312 36.160156 -24.085938 36.015625 -23.859375 C 34.773438 -21.941406 33.53125 -20.023438 32.28125 -18.109375 C 31.039062 -16.203125 29.753906 -14.320312 28.421875 -12.46875 C 28.285156 -12.289062 28.148438 -12.109375 28.015625 -11.921875 C 27.765625 -11.566406 27.515625 -11.210938 27.265625 -10.859375 C 27.160156 -10.703125 27.128906 -10.578125 27.171875 -10.484375 C 27.222656 -10.390625 27.328125 -10.34375 27.484375 -10.34375 C 27.753906 -10.34375 28.019531 -10.347656 28.28125 -10.359375 C 28.695312 -10.390625 29.113281 -10.40625 29.53125 -10.40625 C 29.84375 -10.394531 30.085938 -10.460938 30.265625 -10.609375 C 30.441406 -10.753906 30.59375 -10.960938 30.71875 -11.234375 Z M 30.71875 -11.234375 "/></g></g></g><g fill="#666c79" fill-opacity="1"><g transform="translate(46.846662, 49.012744)"><g><path d="M 4.890625 -4.828125 C 5.117188 -5.046875 5.304688 -5.164062 5.453125 -5.1875 C 5.597656 -5.21875 5.691406 -5.195312 5.734375 -5.125 C 5.785156 -5.050781 5.757812 -4.953125 5.65625 -4.828125 C 5.0625 -4.109375 4.394531 -3.488281 3.65625 -2.96875 C 2.925781 -2.445312 2.171875 -2.144531 1.390625 -2.0625 C 0.609375 -1.988281 0.140625 -2.414062 -0.015625 -3.34375 C -0.140625 -4.269531 0.414062 -6.148438 1.65625 -8.984375 C 2.894531 -11.828125 3.878906 -14.15625 4.609375 -15.96875 C 4.660156 -16.132812 4.75 -16.28125 4.875 -16.40625 C 5.039062 -16.5625 5.234375 -16.597656 5.453125 -16.515625 C 5.523438 -16.472656 5.597656 -16.414062 5.671875 -16.34375 C 5.742188 -16.269531 5.769531 -16.140625 5.75 -15.953125 C 2.5625 -8.390625 1.015625 -4.273438 1.109375 -3.609375 C 1.210938 -2.953125 1.640625 -2.789062 2.390625 -3.125 C 3.140625 -3.457031 3.71875 -3.796875 4.125 -4.140625 C 4.539062 -4.484375 4.796875 -4.710938 4.890625 -4.828125 Z M 4.890625 -4.828125 "/></g></g></g><g fill="#666c79" fill-opacity="1"><g transform="translate(51.894834, 49.012744)"><g><path d="M 4.015625 -4.265625 C 3.660156 -3.835938 3.234375 -3.441406 2.734375 -3.078125 C 2.242188 -2.722656 1.6875 -2.484375 1.0625 -2.359375 C 0.445312 -2.234375 -0.03125 -2.28125 -0.375 -2.5 C -0.71875 -2.71875 -0.785156 -3.195312 -0.578125 -3.9375 C -0.304688 -4.707031 0.0625 -5.4375 0.53125 -6.125 C 0.644531 -6.28125 0.800781 -6.382812 1 -6.4375 C 1.144531 -6.476562 1.273438 -6.453125 1.390625 -6.359375 C 1.503906 -6.273438 1.546875 -6.171875 1.515625 -6.046875 C 1.410156 -5.804688 1.296875 -5.5625 1.171875 -5.3125 C 1.054688 -5.070312 0.976562 -4.914062 0.9375 -4.84375 C 0.707031 -4.414062 0.539062 -3.960938 0.4375 -3.484375 C 0.4375 -3.210938 0.796875 -3.195312 1.515625 -3.4375 C 2.242188 -3.675781 2.945312 -4.109375 3.625 -4.734375 C 4.3125 -5.367188 4.640625 -5.554688 4.609375 -5.296875 C 4.578125 -5.035156 4.378906 -4.691406 4.015625 -4.265625 Z M 2.25 -7.640625 C 2.21875 -7.617188 2.148438 -7.585938 2.046875 -7.546875 C 1.941406 -7.515625 1.828125 -7.488281 1.703125 -7.46875 C 1.585938 -7.457031 1.492188 -7.476562 1.421875 -7.53125 C 1.359375 -7.582031 1.359375 -7.6875 1.421875 -7.84375 C 1.535156 -8.132812 1.648438 -8.382812 1.765625 -8.59375 C 1.878906 -8.800781 2.03125 -9.035156 2.21875 -9.296875 C 2.34375 -9.410156 2.472656 -9.472656 2.609375 -9.484375 C 2.753906 -9.492188 2.875 -9.457031 2.96875 -9.375 C 3.0625 -9.289062 3.09375 -9.175781 3.0625 -9.03125 C 2.90625 -8.488281 2.632812 -8.023438 2.25 -7.640625 Z M 2.25 -7.640625 "/></g></g></g><g fill="#666c79" fill-opacity="1"><g transform="translate(55.840299, 49.012744)"><g><path d="M 7.296875 -5.265625 C 7.328125 -5.265625 7.363281 -5.253906 7.40625 -5.234375 C 7.445312 -5.222656 7.484375 -5.207031 7.515625 -5.1875 C 7.609375 -5.09375 7.617188 -4.984375 7.546875 -4.859375 C 7.453125 -4.765625 7.363281 -4.679688 7.28125 -4.609375 C 6.757812 -4.128906 6.179688 -3.726562 5.546875 -3.40625 C 4.546875 -2.894531 3.445312 -2.632812 2.25 -2.625 C 1.800781 -2.601562 1.34375 -2.675781 0.875 -2.84375 C 0.0078125 -3.175781 -0.34375 -3.800781 -0.1875 -4.71875 C 0.0078125 -5.5625 0.484375 -6.257812 1.234375 -6.8125 C 1.992188 -7.363281 2.804688 -7.601562 3.671875 -7.53125 C 3.835938 -7.507812 4 -7.472656 4.15625 -7.421875 C 4.300781 -7.359375 4.410156 -7.269531 4.484375 -7.15625 C 4.566406 -7.039062 4.578125 -6.945312 4.515625 -6.875 C 4.347656 -6.695312 4.160156 -6.648438 3.953125 -6.734375 C 3.640625 -6.867188 3.351562 -6.90625 3.09375 -6.84375 C 2.84375 -6.789062 2.582031 -6.648438 2.3125 -6.421875 C 2.0625 -6.222656 1.785156 -5.9375 1.484375 -5.5625 C 1.191406 -5.195312 1.003906 -4.828125 0.921875 -4.453125 C 0.835938 -4.078125 1.003906 -3.769531 1.421875 -3.53125 C 1.898438 -3.320312 2.382812 -3.269531 2.875 -3.375 C 4.101562 -3.625 5.242188 -4.09375 6.296875 -4.78125 C 6.390625 -4.820312 6.472656 -4.875 6.546875 -4.9375 C 6.660156 -5.019531 6.773438 -5.085938 6.890625 -5.140625 C 7.015625 -5.203125 7.148438 -5.242188 7.296875 -5.265625 Z M 7.296875 -5.265625 "/></g></g></g><g fill="#666c79" fill-opacity="1"><g transform="translate(62.588056, 49.012744)"><g><path d="M 5.765625 -3.890625 C 5.378906 -3.503906 4.925781 -3.171875 4.40625 -2.890625 C 3.882812 -2.617188 3.445312 -2.441406 3.09375 -2.359375 C 2.738281 -2.273438 2.378906 -2.226562 2.015625 -2.21875 C 1.421875 -2.1875 0.875 -2.265625 0.375 -2.453125 C -0.4375 -2.785156 -0.71875 -3.414062 -0.46875 -4.34375 C -0.238281 -5.144531 0.234375 -5.769531 0.953125 -6.21875 C 1.679688 -6.675781 2.429688 -6.898438 3.203125 -6.890625 C 3.203125 -6.890625 3.207031 -6.890625 3.21875 -6.890625 C 3.414062 -6.898438 3.601562 -6.882812 3.78125 -6.84375 C 4.070312 -6.738281 4.257812 -6.5625 4.34375 -6.3125 C 4.425781 -6.070312 4.367188 -5.804688 4.171875 -5.515625 C 3.742188 -4.859375 3.160156 -4.492188 2.421875 -4.421875 C 1.921875 -4.367188 1.441406 -4.390625 0.984375 -4.484375 C 0.898438 -4.503906 0.820312 -4.484375 0.75 -4.421875 C 0.6875 -4.359375 0.648438 -4.285156 0.640625 -4.203125 C 0.503906 -3.617188 0.679688 -3.242188 1.171875 -3.078125 C 1.773438 -2.867188 2.40625 -2.867188 3.0625 -3.078125 C 3.820312 -3.316406 4.539062 -3.765625 5.21875 -4.421875 C 5.894531 -5.078125 6.285156 -5.378906 6.390625 -5.328125 C 6.503906 -5.285156 6.539062 -5.160156 6.5 -4.953125 C 6.40625 -4.628906 6.160156 -4.273438 5.765625 -3.890625 Z M 1.453125 -5.515625 C 1.410156 -5.460938 1.378906 -5.40625 1.359375 -5.34375 C 1.347656 -5.289062 1.375 -5.242188 1.4375 -5.203125 C 1.675781 -5.066406 1.929688 -5.015625 2.203125 -5.046875 C 2.484375 -5.085938 2.71875 -5.191406 2.90625 -5.359375 C 3.101562 -5.535156 3.1875 -5.75 3.15625 -6 C 3.132812 -6.082031 3.085938 -6.132812 3.015625 -6.15625 C 2.941406 -6.1875 2.867188 -6.195312 2.796875 -6.1875 C 2.296875 -6.09375 1.847656 -5.867188 1.453125 -5.515625 Z M 1.453125 -5.515625 "/></g></g></g></svg>